# xmcd
#
# Track frame offsets:
# 150
# 28796
# 51995
# 74232
# 106487
# 119320
# 137043
# 161259
# 165274
# 211182
# 227986
# 268544
#
# Disc length: 3811 seconds
#
#
# Revision: 0
# Processed by: cddbd v1.5.2PL0 Copyright (c) Steve Scherf et al.
# Submitted via: FreeRIP 2.951 
#
DISCID=aa0ee10c
DTITLE=BrainBell Janglers - 287 RAW
DYEAR=2007
DGENRE=Rock and Roll
TTITLE0=Leaving Trunk
TTITLE1=Mississippi Hammer
TTITLE2=Pussy Pie
TTITLE3=Killing Machine
TTITLE4=Immigrant Song
TTITLE5=Just Got Paid
TTITLE6=Gone
TTITLE7=Chad Banter
TTITLE8=Can't You Hear Me Knockin
TTITLE9=No More
TTITLE10=Silver Satin Queen
TTITLE11=Communication Breakdown
EXTD=
EXTT0=
EXTT1=
EXTT2=
EXTT3=
EXTT4=
EXTT5=
EXTT6=
EXTT7=
EXTT8=
EXTT9=
EXTT10=
EXTT11=
PLAYORDER=
